<svg width="35" height="32" viewBox="0 0 35 32" fill="none" xmlns="http://www.w3.org/2000/svg">
<path d="M16.3268 0H9.77654L22.7793 21.579L25.8101 16.111L16.3268 0Z" fill="url(#paint0_linear_307_2916)"/>
<path d="M10.6564 7.12791L7.13687 1.17171L0 14.2558H6.45251L10.6564 7.12791Z" fill="url(#paint1_linear_307_2916)"/>
<path d="M28.352 14.2558L19.9441 0H26.3966L35 14.2558H28.352Z" fill="url(#paint2_linear_307_2916)"/>
<path d="M28.352 17.1851H35L27.7654 30.6598L24.2458 24.313L28.352 17.1851Z" fill="url(#paint3_linear_307_2916)"/>
<path d="M12.514 10.2525L25.0279 31.3433H18.2821L8.89665 15.2323L12.514 10.2525Z" fill="url(#paint4_linear_307_2916)"/>
<path d="M6.45251 17.1851L14.9581 31.3433H8.21229L0 17.1851H6.45251Z" fill="url(#paint5_linear_307_2916)"/>
<defs>
<linearGradient id="paint0_linear_307_2916" x1="17.5" y1="0" x2="17.5" y2="31.3433" gradientUnits="userSpaceOnUse">
<stop stop-color="#1E3980"/>
<stop offset="1" stop-color="#176B8F"/>
</linearGradient>
<linearGradient id="paint1_linear_307_2916" x1="17.5" y1="0" x2="17.5" y2="31.3433" gradientUnits="userSpaceOnUse">
<stop stop-color="#1E3980"/>
<stop offset="1" stop-color="#176B8F"/>
</linearGradient>
<linearGradient id="paint2_linear_307_2916" x1="17.5" y1="0" x2="17.5" y2="31.3433" gradientUnits="userSpaceOnUse">
<stop stop-color="#1E3980"/>
<stop offset="1" stop-color="#176B8F"/>
</linearGradient>
<linearGradient id="paint3_linear_307_2916" x1="17.5" y1="0" x2="17.5" y2="31.3433" gradientUnits="userSpaceOnUse">
<stop stop-color="#1E3980"/>
<stop offset="1" stop-color="#176B8F"/>
</linearGradient>
<linearGradient id="paint4_linear_307_2916" x1="17.5" y1="0" x2="17.5" y2="31.3433" gradientUnits="userSpaceOnUse">
<stop stop-color="#1E3980"/>
<stop offset="1" stop-color="#176B8F"/>
</linearGradient>
<linearGradient id="paint5_linear_307_2916" x1="17.5" y1="0" x2="17.5" y2="31.3433" gradientUnits="userSpaceOnUse">
<stop stop-color="#1E3980"/>
<stop offset="1" stop-color="#176B8F"/>
</linearGradient>
</defs>
</svg>
